<?xml version="1.0" encoding="UTF-8" standalone="no"?>
<!-- Created with Inkscape (http://www.inkscape.org/) -->

<svg
   xmlns:dc="http://purl.org/dc/elements/1.1/"
   xmlns:cc="http://creativecommons.org/ns#"
   xmlns:rdf="http://www.w3.org/1999/02/22-rdf-syntax-ns#"
   xmlns:svg="http://www.w3.org/2000/svg"
   xmlns="http://www.w3.org/2000/svg"
   xmlns:sodipodi="http://sodipodi.sourceforge.net/DTD/sodipodi-0.dtd"
   xmlns:inkscape="http://www.inkscape.org/namespaces/inkscape"
   width="1052.3622"
   height="744.09448"
   id="svg4171"
   version="1.1"
   inkscape:version="0.48.5 r10040"
   sodipodi:docname="bookright.svg"
   inkscape:export-filename="/Users/denialanderror/PycharmProjects/bedtime/app/static/img/bookright.png"
   inkscape:export-xdpi="90"
   inkscape:export-ydpi="90">
  <defs
     id="defs4173" />
  <sodipodi:namedview
     id="base"
     pagecolor="#ffffff"
     bordercolor="#666666"
     borderopacity="1.0"
     inkscape:pageopacity="0.0"
     inkscape:pageshadow="2"
     inkscape:zoom="0.87220106"
     inkscape:cx="526.18109"
     inkscape:cy="372.04724"
     inkscape:document-units="px"
     inkscape:current-layer="layer1"
     showgrid="true"
     inkscape:snap-grids="false"
     inkscape:window-width="1436"
     inkscape:window-height="855"
     inkscape:window-x="4"
     inkscape:window-y="0"
     inkscape:window-maximized="1">
    <inkscape:grid
       type="xygrid"
       id="grid4723"
       empspacing="5"
       visible="true"
       enabled="true"
       snapvisiblegridlinesonly="true" />
  </sodipodi:namedview>
  <metadata
     id="metadata4176">
    <rdf:RDF>
      <cc:Work
         rdf:about="">
        <dc:format>image/svg+xml</dc:format>
        <dc:type
           rdf:resource="http://purl.org/dc/dcmitype/StillImage" />
        <dc:title></dc:title>
      </cc:Work>
    </rdf:RDF>
  </metadata>
  <g
     inkscape:label="Layer 1"
     inkscape:groupmode="layer"
     id="layer1"
     transform="translate(0,-308.2677)">
    <g
       id="g4741"
       transform="matrix(-1,0,0,-1,1560,1363.0728)"
       inkscape:export-filename="/Users/denialanderror/PycharmProjects/bedtime/app/static/img/bookleft.png"
       inkscape:export-xdpi="90"
       inkscape:export-ydpi="90">
      <path
         style="fill:#552200;fill-opacity:1;fill-rule:evenodd;stroke:#000000;stroke-width:2.00699997;stroke-linecap:round;stroke-linejoin:miter;stroke-miterlimit:4;stroke-opacity:1;stroke-dasharray:none;stroke-dashoffset:0;marker-start:none"
         d="m 520,332.36218 480,0 c 22.16,0 40,13.46721 40,30.19554 l 0,639.60888 c 0,16.7284 -17.84,30.1956 -40,30.1956 l -480,0 0,-0.4003 0,-5.6886 z"
         id="path4743"
         inkscape:connector-curvature="0"
         sodipodi:nodetypes="csssscccc" />
      <rect
         style="fill:#decd87;fill-opacity:1;fill-rule:evenodd;stroke:#000000;stroke-width:2;stroke-linecap:round;stroke-linejoin:miter;stroke-miterlimit:4;stroke-opacity:1;stroke-dasharray:none;stroke-dashoffset:0"
         id="rect4745"
         width="500"
         height="700"
         x="520"
         y="24.094482"
         transform="translate(0,308.2677)"
         rx="120"
         ry="40" />
      <path
         transform="translate(0,308.2677)"
         style="fill:#ffeeaa;fill-opacity:1;fill-rule:evenodd;stroke:#000000;stroke-width:2;stroke-linecap:round;stroke-linejoin:miter;stroke-miterlimit:4;stroke-opacity:1;stroke-dashoffset:0"
         d="m 680,15.523054 c 52.55596,-0.04997 107.61905,-2.857143 161.42857,0 C 929.94388,20.222982 1000,33.014482 1000,44.094482 l 0,659.999998 c 0,11.08 -72.07686,25.67569 -160.71429,25 l -156.95,-1.19644 C 599.38948,727.26574 520,725.17448 520,714.09448 l 0,-678.571427 c 0,-11.08 70.22663,-19.914645 160,-19.999999 z"
         id="path4747"
         inkscape:connector-curvature="0"
         sodipodi:nodetypes="sssssssss" />
    </g>
    <g
       id="g4736"
       inkscape:export-filename="/Users/denialanderror/PycharmProjects/bedtime/app/static/img/bookleft.png"
       inkscape:export-xdpi="90"
       inkscape:export-ydpi="90"
       transform="matrix(-1,0,0,1,1560,0)">
      <path
         sodipodi:nodetypes="csssscccc"
         inkscape:connector-curvature="0"
         id="rect4728"
         d="m 520,332.36218 480,0 c 22.16,0 40,13.46721 40,30.19554 l 0,639.60888 c 0,16.7284 -17.84,30.1956 -40,30.1956 l -480,0 0,0 0,-700.00002 z"
         style="fill:#552200;fill-opacity:1;fill-rule:evenodd;stroke:#000000;stroke-width:2.00650716;stroke-linecap:round;stroke-linejoin:miter;stroke-miterlimit:4;stroke-opacity:1;stroke-dashoffset:0" />
      <rect
         ry="40"
         rx="120"
         transform="translate(0,308.2677)"
         y="24.094482"
         x="520"
         height="700"
         width="500"
         id="rect4731"
         style="fill:#decd87;fill-opacity:1;fill-rule:evenodd;stroke:#000000;stroke-width:2;stroke-linecap:round;stroke-linejoin:miter;stroke-miterlimit:4;stroke-opacity:1;stroke-dasharray:none;stroke-dashoffset:0" />
      <path
         sodipodi:nodetypes="sssssssss"
         inkscape:connector-curvature="0"
         id="rect4733"
         d="m 680,14.306981 c 52.55596,-0.04997 107.61905,-0.01964 161.42857,1.216073 C 930.04521,17.558097 1000,33.014482 1000,44.094482 l 0,659.999998 c 0,11.08 -71.26388,27.19579 -159.90357,27.43215 l -159.38215,0.42499 C 556.41771,732.28306 520,725.17448 520,714.09448 l 0,-678.571427 c 0,-11.08 70.22663,-21.130718 160,-21.216072 z"
         style="fill:#ffeeaa;fill-opacity:1;fill-rule:evenodd;stroke:#000000;stroke-width:2;stroke-linecap:round;stroke-linejoin:miter;stroke-miterlimit:4;stroke-opacity:1;stroke-dashoffset:0"
         transform="translate(0,308.2677)" />
    </g>
    <path
       style="fill:#552200;fill-opacity:1;fill-rule:evenodd;stroke:#552200;stroke-width:2.00699997;stroke-linecap:round;stroke-linejoin:miter;stroke-miterlimit:4;stroke-opacity:1;stroke-dasharray:none;stroke-dashoffset:0"
       d="m 1040.0412,25.080225 0,6.879148 z"
       id="path4987"
       inkscape:connector-curvature="0"
       transform="translate(0,308.2677)" />
    <path
       style="fill:#552200;fill-opacity:1;fill-rule:evenodd;stroke:#552200;stroke-width:2.0065937;stroke-linecap:round;stroke-linejoin:miter;stroke-miterlimit:4;stroke-opacity:1;stroke-dasharray:none;stroke-dashoffset:0"
       d="m 1040.0412,1031.3712 0,-4.441 z"
       id="path4989"
       inkscape:connector-curvature="0" />
  </g>
</svg>
