<?xml version="1.0" encoding="UTF-8" standalone="no"?>
<!-- Created with Inkscape (http://www.inkscape.org/) -->

<svg
   xmlns:dc="http://purl.org/dc/elements/1.1/"
   xmlns:cc="http://creativecommons.org/ns#"
   xmlns:rdf="http://www.w3.org/1999/02/22-rdf-syntax-ns#"
   xmlns:svg="http://www.w3.org/2000/svg"
   xmlns="http://www.w3.org/2000/svg"
   version="1.1"
   width="604.39655"
   height="441.22583"
   id="svg4171">
  <defs
     id="defs4173" />
  <metadata
     id="metadata4176">
    <rdf:RDF>
      <cc:Work
         rdf:about="">
        <dc:format>image/svg+xml</dc:format>
        <dc:type
           rdf:resource="http://purl.org/dc/dcmitype/StillImage" />
        <dc:title></dc:title>
      </cc:Work>
    </rdf:RDF>
  </metadata>
  <g
     transform="matrix(0.58228449,0,0,0.61285478,-4.5217243,-196.38131)"
     id="layer1">
    <g
       transform="matrix(0.99607661,0,0,-0.9999977,8.7929497,1361.9247)"
       id="g4544">
      <path
         d="m 520,332.36218 480,0 c 22.16,0 40,13.46721 40,30.19554 l 0,639.60888 c 0,16.7284 -17.84,30.1956 -40,30.1956 l -480,0 0,-0.4003 0,-5.6886 z"
         id="path4546"
         style="fill:#552200;fill-opacity:1;fill-rule:evenodd;stroke:#000000;stroke-width:2.00699997;stroke-linecap:round;stroke-linejoin:miter;stroke-miterlimit:4;stroke-opacity:1;stroke-dasharray:none;stroke-dashoffset:0;marker-start:none" />
      <rect
         width="500"
         height="700"
         rx="120"
         ry="40"
         x="520"
         y="24.094482"
         transform="translate(0,308.2677)"
         id="rect4548"
         style="fill:#decd87;fill-opacity:1;fill-rule:evenodd;stroke:#000000;stroke-width:2;stroke-linecap:round;stroke-linejoin:miter;stroke-miterlimit:4;stroke-opacity:1;stroke-dasharray:none;stroke-dashoffset:0" />
      <path
         d="m 680,15.523054 c 52.55596,-0.04997 107.61905,-2.857143 161.42857,0 C 929.94388,20.222982 1000,33.014482 1000,44.094482 l 0,659.999998 c 0,11.08 -72.07686,25.67569 -160.71429,25 l -156.95,-1.19644 C 599.38948,727.26574 520,725.17448 520,714.09448 l 0,-678.571427 c 0,-11.08 70.22663,-19.914645 160,-19.999999 z"
         transform="translate(0,308.2677)"
         id="path4550"
         style="fill:#ffeeaa;fill-opacity:1;fill-rule:evenodd;stroke:#000000;stroke-width:2;stroke-linecap:round;stroke-linejoin:miter;stroke-miterlimit:4;stroke-opacity:1;stroke-dashoffset:0" />
    </g>
    <path
       d="m 526.75279,331.21646 478.11681,0 c 22.0731,0 39.8431,13.46718 39.8431,30.19547 l 0,639.60747 c 0,16.7283 -17.77,30.1955 -39.8431,30.1955 l -478.11681,0 0,0 0,-699.99844 z"
       id="path4552"
       style="fill:#552200;fill-opacity:1;fill-rule:evenodd;stroke:#000000;stroke-width:2.00256491;stroke-linecap:round;stroke-linejoin:miter;stroke-miterlimit:4;stroke-opacity:1;stroke-dashoffset:0" />
    <rect
       width="498.0383"
       height="699.99841"
       rx="119.52919"
       ry="39.999908"
       x="526.75281"
       y="331.21646"
       id="rect4554"
       style="fill:#decd87;fill-opacity:1;fill-rule:evenodd;stroke:#000000;stroke-width:1.9960705;stroke-linecap:round;stroke-linejoin:miter;stroke-miterlimit:4;stroke-opacity:1;stroke-dasharray:none;stroke-dashoffset:0" />
    <path
       d="m 686.12502,321.42899 c 52.34977,-0.05 107.19682,-0.0196 160.79523,1.21607 88.26896,2.03504 157.94935,17.49139 157.94935,28.57136 l 0,659.99848 c 0,11.08 -70.98435,27.1957 -159.27627,27.4321 l -158.75683,0.425 c -123.80891,0.3314 -160.08371,-6.7771 -160.08371,-17.8571 l 0,-678.56989 c 0,-11.07997 69.95108,-21.13067 159.37223,-21.21602 z"
       id="path4556"
       style="fill:#ffeeaa;fill-opacity:1;fill-rule:evenodd;stroke:#000000;stroke-width:1.9960705;stroke-linecap:round;stroke-linejoin:miter;stroke-miterlimit:4;stroke-opacity:1;stroke-dashoffset:0" />
  </g>
  <g
     transform="matrix(-0.58228448,0,0,0.61285993,608.91824,-196.38661)"
     id="g4211">
    <g
       transform="matrix(0.99607661,0,0,-0.9999977,8.7929497,1361.9247)"
       id="g4213">
      <path
         d="m 520,332.36218 480,0 c 22.16,0 40,13.46721 40,30.19554 l 0,639.60888 c 0,16.7284 -17.84,30.1956 -40,30.1956 l -480,0 0,-0.4003 0,-5.6886 z"
         id="path4215"
         style="fill:#552200;fill-opacity:1;fill-rule:evenodd;stroke:#000000;stroke-width:2.00699997;stroke-linecap:round;stroke-linejoin:miter;stroke-miterlimit:4;stroke-opacity:1;stroke-dasharray:none;stroke-dashoffset:0;marker-start:none" />
      <rect
         width="500"
         height="700"
         rx="120"
         ry="40"
         x="520"
         y="24.094482"
         transform="translate(0,308.2677)"
         id="rect4217"
         style="fill:#decd87;fill-opacity:1;fill-rule:evenodd;stroke:#000000;stroke-width:2;stroke-linecap:round;stroke-linejoin:miter;stroke-miterlimit:4;stroke-opacity:1;stroke-dasharray:none;stroke-dashoffset:0" />
      <path
         d="m 680,15.523054 c 52.55596,-0.04997 107.61905,-2.857143 161.42857,0 C 929.94388,20.222982 1000,33.014482 1000,44.094482 l 0,659.999998 c 0,11.08 -72.07686,25.67569 -160.71429,25 l -156.95,-1.19644 C 599.38948,727.26574 520,725.17448 520,714.09448 l 0,-678.571427 c 0,-11.08 70.22663,-19.914645 160,-19.999999 z"
         transform="translate(0,308.2677)"
         id="path4219"
         style="fill:#ffeeaa;fill-opacity:1;fill-rule:evenodd;stroke:#000000;stroke-width:2;stroke-linecap:round;stroke-linejoin:miter;stroke-miterlimit:4;stroke-opacity:1;stroke-dashoffset:0" />
    </g>
    <path
       d="m 526.75279,331.21646 478.11681,0 c 22.0731,0 39.8431,13.46718 39.8431,30.19547 l 0,639.60747 c 0,16.7283 -17.77,30.1955 -39.8431,30.1955 l -478.11681,0 0,0 0,-699.99844 z"
       id="path4221"
       style="fill:#552200;fill-opacity:1;fill-rule:evenodd;stroke:#000000;stroke-width:2.00256491;stroke-linecap:round;stroke-linejoin:miter;stroke-miterlimit:4;stroke-opacity:1;stroke-dashoffset:0" />
    <rect
       width="498.0383"
       height="699.99841"
       rx="119.52919"
       ry="39.999908"
       x="526.75281"
       y="331.21646"
       id="rect4223"
       style="fill:#decd87;fill-opacity:1;fill-rule:evenodd;stroke:#000000;stroke-width:1.9960705;stroke-linecap:round;stroke-linejoin:miter;stroke-miterlimit:4;stroke-opacity:1;stroke-dasharray:none;stroke-dashoffset:0" />
    <path
       d="m 686.12502,321.42899 c 52.34977,-0.05 107.19682,-0.0196 160.79523,1.21607 88.26896,2.03504 157.94935,17.49139 157.94935,28.57136 l 0,659.99848 c 0,11.08 -70.98435,27.1957 -159.27627,27.4321 l -158.75683,0.425 c -123.80891,0.3314 -160.08371,-6.7771 -160.08371,-17.8571 l 0,-678.56989 c 0,-11.07997 69.95108,-21.13067 159.37223,-21.21602 z"
       id="path4225"
       style="fill:#ffeeaa;fill-opacity:1;fill-rule:evenodd;stroke:#000000;stroke-width:1.9960705;stroke-linecap:round;stroke-linejoin:miter;stroke-miterlimit:4;stroke-opacity:1;stroke-dashoffset:0" />
  </g>
</svg>
